<?xml version="1.0" encoding="UTF-8" standalone="no"?>
<svg
   width="29mm"
   height="29mm"
   viewBox="0 0 29 29"
   version="1.1"
   id="svg5"
   sodipodi:docname="qr.svg"
   inkscape:version="1.1.2 (0a00cf5339, 2022-02-04)"
   xmlns:inkscape="http://www.inkscape.org/namespaces/inkscape"
   xmlns:sodipodi="http://sodipodi.sourceforge.net/DTD/sodipodi-0.dtd"
   xmlns="http://www.w3.org/2000/svg"
   xmlns:svg="http://www.w3.org/2000/svg">
  <sodipodi:namedview
     id="namedview6"
     pagecolor="#ffffff"
     bordercolor="#666666"
     borderopacity="1.0"
     inkscape:pageshadow="2"
     inkscape:pageopacity="0.0"
     inkscape:pagecheckerboard="0"
     inkscape:document-units="mm"
     showgrid="false"
     inkscape:zoom="5.6568543"
     inkscape:cx="30.670757"
     inkscape:cy="61.783455"
     inkscape:window-width="1918"
     inkscape:window-height="1043"
     inkscape:window-x="0"
     inkscape:window-y="1092"
     inkscape:window-maximized="0"
     inkscape:current-layer="layer1" />
  <defs
     id="defs2" />
  <g
     id="layer1"
     transform="translate(-170.96731,-184.04581)"
     style="fill:#000000">
    <rect
       style="fill:#1a1a1a;stroke-width:86.1301;stroke-miterlimit:4;stroke-dasharray:none;fill-opacity:1"
       id="rect1052"
       width="29.186609"
       height="29.128397"
       x="170.96957"
       y="184.04581" />
    <path
       style="fill:#ffffff;stroke-width:86.278;stroke-miterlimit:4;stroke-dasharray:none"
       d="m 171.07997,212.82759 c -0.17813,-2.92602 -0.008,-5.86271 0.0128,-8.7932 3.00893,0 6.01787,0 9.0268,0 0,2.99861 0,5.99723 0,8.99584 -2.82009,0.0124 -5.64475,0.18323 -8.4615,0.0191 -0.17965,-0.0549 -0.46553,-0.024 -0.57815,-0.22171 z m 8.40758,-4.244 c -1.3e-4,-1.30582 -2.6e-4,-2.61164 -3.9e-4,-3.91746 -2.51719,0.007 -5.04481,-0.1822 -7.5533,0.0638 -0.76819,0.92869 -0.20361,2.7007 -0.37577,3.96319 0.21987,1.19504 -0.43643,3.13174 0.481,3.83395 2.48054,0.15665 4.96631,0.002 7.44888,-0.026 -1.5e-4,-1.30581 -2.4e-4,-2.6117 -4.2e-4,-3.91746 z m -4.01666,3.04973 c -1.01859,-0.0247 -2.03719,-0.0493 -3.05579,-0.074 0.0683,-1.97925 0.0403,-3.9657 0.23747,-5.93743 1.4514,-0.38571 3.01751,-0.13369 4.52075,-0.14058 0.45499,0.0702 1.13102,-0.0817 1.45229,0.12293 0.0388,2.03263 0.28676,4.09077 -0.099,6.10305 -1.01858,-0.0247 -2.03718,-0.0493 -3.05576,-0.074 z m 2.65755,-3.10101 c 0,-0.83785 0,-1.67569 0,-2.51354 -1.68146,0 -3.36293,0 -5.04437,0 0,1.67569 0,3.35139 0,5.02708 1.68144,0 3.36291,0 5.04437,0 0,-0.83785 0,-1.67569 0,-2.51354 z m 4.35468,4.26129 c -0.68608,-1.29729 0.75539,-1.57709 1.42881,-2.07526 0.45106,-1.27786 -0.21454,-2.02249 -1.44093,-1.92964 -0.0118,-0.49255 -0.19508,-1.58109 0.20319,-1.85173 1.05118,-0.0499 2.10237,-0.0998 3.15356,-0.14976 0,1.41031 0,2.82062 0,4.23093 0.92922,0.0533 1.85845,0.10667 2.78767,0.16 0,0.61736 0,1.23473 0,1.85209 -1.9079,0.0117 -3.82367,0.19268 -5.72566,0.0157 -0.15076,-0.0341 -0.3457,-0.088 -0.40664,-0.25237 z m 5.68764,-0.77642 c -0.14467,-0.87408 -1.53155,-0.25912 -2.23177,-0.3598 -0.7343,0.28191 -0.48358,-0.50909 -0.54448,-0.96064 -0.0398,-1.1241 -0.0796,-2.24819 -0.11952,-3.37228 -0.72153,0.10387 -1.53542,-0.0442 -2.16958,0.3678 -0.24406,1.0716 1.84564,0.17587 1.3745,1.59239 0.0736,1.06885 0.27915,2.62846 -1.2658,2.43067 -0.79323,1.36196 2.04868,0.76262 2.81167,0.85681 0.63397,-0.13473 1.84904,0.17773 2.14498,-0.55495 z m 5.72524,0.76771 c -0.72072,-1.78915 1.35304,-1.721 2.51765,-1.68862 0.71929,-0.0237 1.43858,-0.0473 2.15787,-0.071 0,0.71242 0,1.42485 0,2.13727 -1.49643,-0.054 -3.02992,0.14858 -4.49381,-0.19787 l -0.11688,-0.0813 -0.0649,-0.0984 z m 4.09438,-0.61456 c -0.77096,-0.71624 -3.00203,-0.92777 -3.6227,-3.7e-4 0.84719,0.65296 2.74609,0.67385 3.63614,0.13589 z m -7.1846,-0.54366 c -1.5747,0.49734 -2.05076,-2.51658 -0.18352,-1.90044 0.79127,-0.006 1.58257,-0.002 2.37384,-0.003 0.007,0.78888 0.17889,2.10035 -1.02608,1.9424 -0.38847,0.01 -0.7767,-0.0149 -1.16424,-0.0387 z m 1.59444,-0.91155 c -0.45018,-0.66192 -3.16416,-0.59897 -1.89904,0.2829 0.55293,-0.0235 1.61775,0.29413 1.89904,-0.2829 z m 3.30718,-0.4002 c -0.37935,-0.7443 -0.46298,-1.61348 -1.56795,-1.57909 -0.29416,-0.435 -0.51712,-1.60434 -0.21233,-1.90668 1.28233,-0.10327 2.61384,0.0433 3.85448,-0.30801 0.11044,-1.13603 1.18945,-1.08211 2.09356,-1.03159 0.61048,-0.0905 0.15672,0.84511 0.26909,1.23487 -0.0375,1.13178 -0.0749,2.26356 -0.11244,3.39534 -0.85684,0.003 -2.05123,0.18544 -2.09683,-1.00613 -0.8193,-0.21164 -0.72699,1.75869 -1.97067,1.25837 l -0.25691,-0.0571 z m 1.00562,-1.22037 c 0.0548,-1.12389 2.45623,-1.30267 1.99074,0.20844 0.92059,1.21989 0.96157,-1.51854 0.89858,-2.1214 0.3298,-1.5271 -1.05393,-1.13364 -1.19264,-0.0193 -1.28143,0.51796 -3.07345,-0.14829 -4.09916,0.81087 0.93915,0.30683 1.71878,0.63549 1.83983,1.70532 0.37206,0.20151 0.59879,-0.28692 0.56265,-0.58395 z m -9.89919,-0.32921 c -0.46898,-1.01952 0.41089,-3.03607 -1.34453,-2.85353 -0.32926,-1.05809 -0.11122,-2.22538 -0.17252,-3.33262 0.70037,0.0466 2.03196,-0.26531 1.9246,0.82548 -0.0813,1.05138 1.54759,0.27666 0.98642,-0.59513 0.28492,-0.47384 1.60899,-0.5759 1.86786,-0.26107 -0.0579,1.11594 0.14893,2.28586 -0.16897,3.35713 -1.62824,-0.14855 -1.01569,1.71039 -1.39295,2.70759 -0.40757,0.39462 -1.20242,0.33059 -1.69991,0.15215 z m 1.40339,-1.96844 c -0.28697,-1.03054 0.38417,-1.34452 1.16131,-1.50139 0.5104,-0.71497 -0.25257,-3.33933 -0.67907,-1.45955 -0.13752,1.33228 -2.47897,0.82405 -2.19713,-0.52543 -1.12919,-0.56468 -0.84851,2.55299 0.47555,2.299 0.42839,0.68216 -0.24529,3.09526 1.09305,2.47374 0.16679,-0.40468 0.13238,-0.85858 0.14629,-1.28637 z m -5.84086,-2.47852 c -0.51662,-1.37264 1.05734,-2.59138 2.02995,-1.42864 0.1699,1.03148 0.0653,2.08655 0.094,3.12903 -0.70798,0 -1.41597,0 -2.12394,0 0,-0.5668 0,-1.13359 0,-1.70039 z m 1.3538,0.97279 c 0.25535,-0.5824 0.0818,-2.9952 -0.72132,-1.70016 -0.18032,0.53251 -0.22886,2.45253 0.72132,1.70016 z m 8.73495,-0.33073 c 0.0612,-0.45649 -0.25415,-1.28832 0.49593,-1.05834 0.77186,-0.0528 1.61332,0.14646 2.32651,-0.17735 -0.36027,-1.6607 2.62353,-1.52533 2.01492,0.16983 0.48757,1.62708 -0.67428,2.50047 -2.20897,2.12454 -0.87613,-7.6e-4 -1.75225,-1.5e-4 -2.62839,-3.5e-4 0,-0.35278 0,-0.70555 0,-1.05833 z m 4.24791,-0.50086 c 0.30704,-0.85713 -0.99919,-1.84755 -0.81219,-0.42656 -0.22977,1.09299 -2.97394,0.0475 -2.78316,1.16561 1.14043,0.45044 2.39652,0.2427 3.59535,0.29097 0,-0.34334 0,-0.68668 0,-1.03002 z m -4.10627,-1.29826 c -0.23322,-1.14498 -0.11049,-2.32928 -0.14164,-3.49255 0.63876,0.10006 1.87355,-0.34987 1.87281,0.63447 0.16566,1.30373 0.33347,3.292 -1.60985,2.89936 l -0.12134,-0.0413 z m 1.18584,-1.79481 c 0.21904,-0.77464 -0.57027,-1.63309 -0.67984,-0.4132 -0.49288,0.72005 0.32823,2.47686 0.6594,0.99141 l 0.0155,-0.26155 z m -21.23952,0.71503 c 0.10861,-0.9728 -0.57918,-1.91467 -1.51169,-1.8158 -0.73188,-1.79647 1.03551,-2.34594 2.46035,-1.95523 0.79012,0.0542 1.58,0.11181 2.37001,0.16763 0,1.49931 0,2.99861 0,4.49792 -1.10623,0.0525 -2.21245,0.10507 -3.31867,0.1576 0,-0.35071 0,-0.70141 0,-1.05212 z m 2.65494,-1.36338 c 0,-0.62034 0,-1.24068 0,-1.86102 -1.11852,0.0809 -2.28486,-0.0773 -3.35778,0.28485 -0.19131,0.82619 1.83964,0.24291 1.23314,1.5955 -0.36416,1.32966 0.56594,2.12535 1.81822,1.84169 0.60335,0.0876 0.18073,-0.84717 0.30642,-1.23554 0,-0.20849 0,-0.41699 0,-0.62548 z m 1.57251,1.00113 c 0.0171,-1.57411 -0.25386,-3.20059 0.0948,-4.74127 0.88173,-0.0423 1.44332,-0.45733 1.38578,-1.41029 1.01812,0.0684 1.17429,-0.57562 1.3673,-1.34772 0.52647,-0.0447 1.65304,-0.311 1.95137,0.0573 -0.0595,1.05242 0.15506,2.16496 -0.17253,3.16787 -0.9171,-0.0246 -1.20379,0.48515 -1.30095,1.30862 -1.37313,-0.20053 -1.6311,0.84589 -1.44696,1.98833 -0.0591,0.45363 0.25156,1.27574 -0.49591,1.04336 -0.46107,-0.008 -0.92857,0.0278 -1.38298,-0.0661 z m 1.32705,-1.61403 c -0.22149,-0.96973 0.0201,-2.02441 1.21559,-1.8917 -0.0355,-0.96405 0.54369,-1.33724 1.4007,-1.38655 0.46554,-0.5402 0.46836,-2.93135 -0.44358,-1.81351 0.19066,1.39006 -2.03562,0.74911 -1.64888,2.30424 -1.85902,-0.0127 -1.23608,2.10867 -1.22438,3.37337 0.19655,1.18447 0.90778,-0.0434 0.70055,-0.58585 z m 1.45176,1.30254 c -0.6682,-1.55481 0.97203,-1.80985 2.1015,-1.70511 0.36813,0.11217 1.27884,-0.34278 1.24654,0.18791 0,0.6316 0,1.26321 0,1.89481 -1.06253,-0.0493 -2.17101,0.14001 -3.19193,-0.20499 l -0.15607,-0.17265 z m 2.81703,-0.72407 c -0.22572,-1.21628 -3.32501,-0.18993 -1.60662,0.52881 0.49221,-0.0671 1.53356,0.20145 1.60662,-0.52881 z m 4.3513,0.72407 c -0.67988,-1.59913 1.0381,-1.79699 2.17598,-1.70196 0.39098,0.10176 1.33879,-0.324 1.29736,0.1874 -0.0603,0.63074 -0.1207,1.26147 -0.18107,1.89221 -1.0443,-0.0491 -2.13496,0.13912 -3.13729,-0.20543 l -0.15494,-0.17221 z m 2.75861,-0.65532 c -0.38883,-1.36917 -3.52816,0.0906 -1.35183,0.4754 0.41661,-0.002 1.262,0.0693 1.35183,-0.4754 z m 7.22675,-0.0128 c -0.53979,-1.55652 1.83149,-0.57528 1.32746,-2.11172 0.41054,-1.51073 -2.03049,-0.82384 -1.44845,-2.46365 -0.25026,-0.73582 0.37375,-0.61722 0.89748,-0.59663 0.84741,0 1.69482,0 2.54223,0 0,2.02847 0,4.05694 0,6.08541 -1.10622,0.0525 -2.21244,0.10507 -3.31867,0.1576 -3e-5,-0.357 6e-5,-0.71405 -5e-5,-1.07101 z m 2.78768,-2.12929 c 0,-0.83785 0,-1.6757 0,-2.51355 -0.69493,0.0341 -1.44548,-0.16411 -2.09867,0.10514 -0.42989,1.14433 1.74018,0.51503 1.16654,1.91598 0.12071,1.10166 0.10218,2.33156 -1.27376,2.29325 -0.21505,1.13877 1.29527,0.76488 2.00842,0.72931 0.43834,-0.10351 0.0825,-0.93474 0.19747,-1.33446 0,-0.39856 0,-0.79711 0,-1.19567 z m -14.14261,0.15432 c 0.21107,-1.32248 -1.03408,-1.28992 -2.01852,-1.2975 -0.57579,0.0459 -1.03836,-0.0148 -0.83047,-0.70643 0.11654,-0.37066 -0.26959,-1.21326 0.24751,-1.20785 1.36086,-0.0199 2.75152,-0.32837 4.08989,-0.0412 0.57932,0.80725 0.77388,3.17647 -0.52326,3.42481 -0.3134,0.0232 -0.71835,0.0727 -0.96515,-0.17186 z m 1.26616,-1.60344 c -0.12444,-0.37901 0.3047,-1.31694 -0.33058,-1.18018 -1.06578,0.0676 -2.18724,-0.11774 -3.20644,0.22048 -0.17922,1.68993 3.10059,-0.12545 2.76791,1.75986 0.48475,1.09228 0.90777,-0.31719 0.76911,-0.80016 z m 2.85845,0.95863 c -0.4677,-1.98524 2.77064,-0.37403 2.91606,-1.91582 -0.0225,-1.37065 2.7829,-0.81073 1.93014,0.62351 -0.009,0.66989 -0.004,1.33988 -0.005,2.00982 -1.57918,0.0566 -3.15837,0.1132 -4.73755,0.1698 -0.0344,-0.29577 -0.0689,-0.59154 -0.10341,-0.88731 z m 4.30989,-0.96472 c 0.23989,-0.8499 -0.80404,-1.83703 -0.84522,-0.46302 -0.0582,1.44555 -2.488,0.37437 -2.75883,1.47739 1.16655,0.31155 2.40406,0.1264 3.60405,0.17625 0,-0.39687 0,-0.79375 0,-1.19062 z m -22.72181,-1.16858 c -0.44682,-1.1756 0.0299,-2.36525 1.44541,-1.92001 1.09883,0.17825 3.50855,-0.68284 3.49187,0.99255 -0.12383,1.68211 -2.31687,0.83903 -3.43503,1.03167 -0.5,-0.0237 -1.01042,-0.002 -1.50225,-0.10421 z m 4.13723,-0.94809 c -0.83175,-0.61274 -2.88888,-0.64246 -3.63645,0.0844 0.8882,0.41778 2.87114,0.56725 3.63645,-0.0844 z m 10.08877,-1.45521 c -0.46877,-1.49783 1.78769,-0.65657 1.3415,-2.18418 0.0897,-1.33616 -0.23494,-3.04271 1.3186,-3.51136 0.36363,-1.73136 2.92839,-0.89255 2.19878,0.82258 0.35245,1.17351 -0.22644,1.98669 -1.40746,1.69796 0,1.41111 0,2.82223 0,4.23334 -1.15047,0 -2.30095,0 -3.45142,0 0,-0.35278 0,-0.70556 0,-1.05834 z m 2.69977,0.19844 c 0.43571,-1.1955 -0.529,-3.48167 0.90403,-3.9026 1.32623,0.30381 0.36297,-3.24993 -0.17093,-1.85937 0.13642,1.33918 -1.97662,0.59227 -1.50895,2.13909 -0.24425,1.12745 0.61436,3.39067 -1.21594,3.26569 -0.68269,0.87423 1.75172,0.90284 1.99179,0.35719 z m -16.85944,-0.63941 c -0.29622,-3.01717 -0.13579,-6.06503 -0.177,-9.09652 3.05317,0.0483 6.10636,0.0965 9.15954,0.1448 0.0485,3.04271 0.0968,6.08542 0.1453,9.12813 -3.04127,-0.0411 -6.10142,0.11843 -9.12784,-0.17641 z m 8.3188,-4.45382 c 0,-1.27882 0,-2.55764 0,-3.83646 -2.56644,0 -5.13289,0 -7.69932,0 0,2.55764 0,5.11528 0,7.67292 2.56643,0 5.13288,0 7.69932,0 0,-1.27882 0,-2.55764 0,-3.83646 z m -6.71334,2.98476 c -0.76976,-0.98616 -0.29901,-2.40686 -0.38963,-3.58217 0.0225,-0.85919 0.0448,-1.71839 0.0673,-2.57759 1.99336,-0.0499 3.98674,-0.0997 5.98011,-0.1496 0.73989,1.72904 0.49226,3.68614 0.40113,5.51404 -0.10767,1.63506 -2.42447,0.87877 -3.53351,1.10351 -0.83718,-0.0446 -1.73716,0.0101 -2.52546,-0.30819 z m 5.38587,-2.98476 c 0,-0.83785 0,-1.67569 0,-2.51354 -1.68146,0 -3.36293,0 -5.04437,0 0,1.67569 0,3.35139 0,5.02708 1.68144,0 3.36291,0 5.04437,0 0,-0.83785 0,-1.67569 0,-2.51354 z m 12.86356,4.29528 c -0.17813,-2.92602 -0.008,-5.86271 0.0128,-8.7932 3.00893,0 6.01787,0 9.0268,0 0,2.99861 0,5.99723 0,8.99584 -2.82009,0.0124 -5.64475,0.18323 -8.4615,0.0191 -0.17963,-0.0549 -0.46555,-0.024 -0.57815,-0.22171 z m 5.39445,-0.43733 c 1.08586,-0.007 2.17174,-0.0143 3.2576,-0.0215 -0.0835,-2.62385 -0.14448,-5.24861 -0.25521,-7.87143 -2.52593,-0.0825 -5.06454,-0.0355 -7.58746,0.1084 -0.38202,1.60513 -0.15605,3.31945 -0.19165,4.96751 0.20399,1.20974 -0.65601,3.55821 1.3296,2.8695 1.14871,-0.0314 2.29821,-0.0438 3.44712,-0.0525 z m -2.92573,-0.76507 c -1.72165,0.009 -0.7925,-2.16589 -1.02689,-3.24616 0.18605,-1.10716 -0.60392,-3.30979 1.26853,-2.89508 1.61189,-0.0588 3.22473,-0.0104 4.83696,0.006 0.055,2.02882 0.10997,4.05764 0.16496,6.08646 -1.74791,0.0205 -3.49648,0.16618 -5.24356,0.0491 z m 4.57976,-3.09288 c 0,-0.83785 0,-1.67569 0,-2.51354 -1.68146,0 -3.36291,0 -5.04438,0 0,1.67569 0,3.35139 0,5.02708 1.68147,0 3.36292,0 5.04438,0 0,-0.83785 0,-1.67569 0,-2.51354 z m -15.53951,3.07872 c -0.20941,-2.56052 -0.0949,-5.13976 -0.12461,-7.70893 1.60908,0.0403 3.23662,-0.10446 4.83004,0.12626 0.27535,0.90233 -0.0418,2.50476 -1.46129,1.99041 -0.367,0.13014 -1.27895,-0.2828 -1.24481,0.24711 0,1.75042 0,3.50083 0,5.25125 -0.66024,0.0499 -1.34594,0.23825 -1.99933,0.0939 z m 1.43872,-3.40945 c 0.0617,-1.15963 -0.54443,-3.4457 1.40281,-2.93615 0.90801,0.22517 1.81978,-0.66598 0.41722,-0.64248 -1.30416,-0.15812 -3.20963,-0.31853 -2.74913,1.5679 -0.006,1.54166 -0.14081,3.10854 0.10792,4.63354 1.34482,1.00302 0.69501,-2.05156 0.82118,-2.62281 z"
       id="path105" />
  </g>
</svg>
