<?xml version="1.0" encoding="UTF-8" standalone="no"?>
<svg
   width="435.05905"
   height="364.70319"
   viewBox="0 0 130.51772 109.41096"
   id="svg2"
   version="1.1"
   sodipodi:docname="telegram-org.svg"
   inkscape:version="1.1.2 (0a00cf5339, 2022-02-04)"
   xmlns:inkscape="http://www.inkscape.org/namespaces/inkscape"
   xmlns:sodipodi="http://sodipodi.sourceforge.net/DTD/sodipodi-0.dtd"
   xmlns="http://www.w3.org/2000/svg"
   xmlns:svg="http://www.w3.org/2000/svg">
  <sodipodi:namedview
     id="namedview17"
     pagecolor="#ffffff"
     bordercolor="#666666"
     borderopacity="1.0"
     inkscape:pageshadow="2"
     inkscape:pageopacity="0.0"
     inkscape:pagecheckerboard="0"
     showgrid="false"
     inkscape:zoom="2.015"
     inkscape:cx="126.30273"
     inkscape:cy="363.52357"
     inkscape:window-width="3840"
     inkscape:window-height="2111"
     inkscape:window-x="0"
     inkscape:window-y="25"
     inkscape:window-maximized="1"
     inkscape:current-layer="svg2" />
  <defs
     id="defs21" />
  <style
     id="style2">.st0{fill:url(#path2995-1-0_1_)}.st1{fill:#c8daea}.st2{fill:#a9c9dd}.st3{fill:url(#path2991_1_)}</style>
  <linearGradient
     id="path2995-1-0_1_"
     gradientUnits="userSpaceOnUse"
     x1="-683.30499"
     y1="534.84497"
     x2="-693.30499"
     y2="511.51199"
     gradientTransform="matrix(6,0,0,-6,4255,3247)">
    <stop
       offset="0"
       stop-color="#37aee2"
       id="stop4" />
    <stop
       offset="1"
       stop-color="#1e96c8"
       id="stop6" />
  </linearGradient>
  <path
     id="path2993"
     class="st1"
     d="m 49.0736,102.83247 c -3.9,0 -3.2,-1.5 -4.6,-5.200001 l -11.4,-37.6 70.8,-44.199995 8.3,2.2 -6.9,18.8 z" />
  <path
     id="path2989"
     class="st2"
     d="m 49.0736,102.83247 c 3,0 4.3,-1.4 6.000004,-3.000001 2.6,-2.5 36,-35 36,-35 l -20.5,-5 -19.000004,12 -2.5,30.000001 z" />
  <linearGradient
     id="path2991_1_"
     gradientUnits="userSpaceOnUse"
     x1="128.991"
     y1="118.245"
     x2="153.991"
     y2="78.245003"
     gradientTransform="matrix(1,0,0,-1,-48.926401,169.83247)">
    <stop
       offset="0"
       stop-color="#eff7fc"
       id="stop12" />
    <stop
       offset="1"
       stop-color="#ffffff"
       id="stop14" />
  </linearGradient>
  <path
     id="path2991"
     class="st3"
     d="m 51.0736,72.232469 48.400004,35.700001 c 5.499996,3 9.499996,1.5 10.899996,-5.1 l 19.7,-92.799996 c 2,-8.1000001 -3.1,-11.7000001 -8.4,-9.3000001 L 6.0735996,45.332474 c -7.9,3.2 -7.8,7.6 -1.4,9.5 l 29.7000004,9.299995 68.7,-43.299995 c 3.2,-2 6.2,-0.9 3.8,1.3 z"
     style="fill:url(#path2991_1_)" />
  <text
     xml:space="preserve"
     style="font-style:normal;font-weight:normal;font-size:20px;line-height:1.25;font-family:sans-serif;fill:#000000;fill-opacity:1;stroke:none;stroke-width:0.3"
     x="-4.2398438"
     y="71.17646"
     id="text3304"
     transform="rotate(-31.680153)"><tspan
       id="tspan3302"
       style="font-size:20px;stroke-width:0.3"
       x="-4.2398438"
       y="71.17646">.ORG</tspan></text>
</svg>
